PathFileType	4	(X/Y/Z)	Kaydara																																																																																																																									
DataRate	CameraRate	NumFrames	NumMarkers	Units	OrigDataRate	OrigDataStartFrame	OrigNumFrames																																																																																																																					
30	30	5	41	mm	30	88	230																																																																																																																					
Frame#	Time	PAIB_LFHD			PAIB_RFHD			PAIB_LBHD			PAIB_RBHD			PAIB_LFTShould			PAIB_RFTShould			PAIB_LRRShould			PAIB_RRRShould			PAIB_T10			PAIB_STRN			PAIB_TRUN			PAIB_LSHO			PAIB_LUPA			PAIB_LELB			PAIB_LFRM			PAIB_LWRA			PAIB_LWRB			PAIB_LFIN			PAIB_RSHO			PAIB_RUPA			PAIB_RELB			PAIB_RFRM			PAIB_RWRA			PAIB_RWRB			PAIB_RFIN			PAIB_LFWT			PAIB_RFWT			PAIB_LBWT			PAIB_RBWT			PAIB_LTHI			PAIB_LKNE			PAIB_LSHN			PAIB_LANK			PAIB_LHEE			PAIB_LTOE			PAIB_RTHI			PAIB_RKNE			PAIB_RSHN			PAIB_RANK			PAIB_RHEE			PAIB_RTOE		
		X1	Y1	Z1	X2	Y2	Z2	X3	Y3	Z3	X4	Y4	Z4	X5	Y5	Z5	X6	Y6	Z6	X7	Y7	Z7	X8	Y8	Z8	X9	Y9	Z9	X10	Y10	Z10	X11	Y11	Z11	X12	Y12	Z12	X13	Y13	Z13	X14	Y14	Z14	X15	Y15	Z15	X16	Y16	Z16	X17	Y17	Z17	X18	Y18	Z18	X19	Y19	Z19	X20	Y20	Z20	X21	Y21	Z21	X22	Y22	Z22	X23	Y23	Z23	X24	Y24	Z24	X25	Y25	Z25	X26	Y26	Z26	X27	Y27	Z27	X28	Y28	Z28	X29	Y29	Z29	X30	Y30	Z30	X31	Y31	Z31	X32	Y32	Z32	X33	Y33	Z33	X34	Y34	Z34	X35	Y35	Z35	X36	Y36	Z36	X37	Y37	Z37	X38	Y38	Z38	X39	Y39	Z39	X40	Y40	Z40	X41	Y41	Z41
																																																																																																																												
87	2.887	242.80125	1700.19501	-1999.90891	57.3821	1701.97189	-2013.51089	258.7558	1664.60083	-2125.55374	56.09552	1677.77206	-2126.92581	215.6995	1436.63376	-1992.64084	92.21938	1432.88025	-2000.82367	231.55169	1481.96838	-2144.18915	76.91875	1481.94473	-2142.27203	156.08952	1314.4371	-2205.43716	160.50123	1373.85208	-1949.80347	159.38609	1276.19461	-1915.80078	349.9905	1434.53583	-2069.55627	394.94869	1205.4245	-2049.22607	410.42789	1115.79765	-2075.77774	424.54742	1007.20284	-2019.93942	361.67679	907.60452	-1921.53961	400.22423	878.46497	-1983.1662	410.7777	851.70113	-1916.37558	-34.50127	1426.64429	-2061.51108	-92.47853	1246.49773	-2087.69287	-108.82744	1127.62207	-2084.09546	-122.23298	995.17914	-2038.70056	-61.91447	904.66225	-1929.89868	-127.464	882.81517	-1977.5769	-119.84356	855.73807	-1907.65579	263.14041	967.63077	-1938.5434	26.91475	971.44173	-1944.62128	208.21651	1027.40471	-2152.69119	64.00032	1031.31317	-2153.01743	260.04984	748.63548	-2155.22659	297.50338	511.17729	-2069.80209	273.5965	311.80887	-2069.93103	280.71772	128.38098	-2160.71228	227.58989	119.29154	-2210.54916	263.77266	75.2248	-1987.31842	3.45215	730.32562	-2155.85205	-1.04728	487.49645	-2082.31201	56.74726	303.02204	-2073.1665	27.37341	106.77691	-2159.66736	89.44682	112.94432	-2214.3985	43.05429	77.47889	-1991.68777
88	2.92	242.88914	1700.15182	-1999.88403	57.45578	1701.95862	-2013.43994	258.8448	1664.70367	-2125.7959	56.17716	1677.74307	-2126.89301	215.39473	1436.53992	-1992.10236	92.11863	1432.96188	-2000.97382	231.66094	1481.84845	-2144.08371	76.97159	1481.99524	-2142.21848	156.08859	1314.42764	-2205.42557	160.47588	1373.83575	-1949.74777	159.2158	1276.15982	-1915.68039	349.65782	1434.04999	-2067.76779	395.10227	1205.63499	-2048.92136	410.33447	1115.63614	-2075.83817	424.34902	1007.05215	-2020.01709	361.35536	907.53098	-1921.56281	399.90391	878.30566	-1983.21289	410.35534	851.52519	-1916.39862	-34.4755	1426.69769	-2061.47491	-92.449	1246.51993	-2087.60468	-108.83673	1127.6619	-2083.99811	-122.19522	995.21004	-2038.50204	-61.93716	904.72221	-1929.75937	-127.04176	882.46918	-1976.76163	-119.84045	855.86533	-1907.45178	263.09464	967.7095	-1938.60504	27.14017	971.62094	-1944.41986	208.16628	1027.34207	-2152.6973	63.88465	1031.21483	-2152.9158	259.95441	748.59879	-2155.15625	297.47766	511.16058	-2069.67209	273.61065	311.7894	-2069.8259	280.69691	128.15394	-2160.79132	227.59144	119.26045	-2210.53055	263.78159	75.22652	-1987.33551	3.38705	730.35866	-2155.75043	-1.10056	487.60201	-2082.15652	56.83681	303.00938	-2072.97897	27.24405	106.83653	-2159.83887	89.42766	112.90857	-2214.40308	43.05666	77.4674	-1991.69281
89	2.953	242.93312	1700.07553	-1999.79828	57.53314	1701.98868	-2013.46588	258.88624	1664.61517	-2125.73151	56.29504	1677.76489	-2126.84906	215.25591	1436.38443	-1991.8338	91.99834	1432.87903	-2000.95627	231.58205	1481.80405	-2143.99734	76.95056	1481.92017	-2142.12387	156.00525	1314.3692	-2205.28244	160.40415	1373.75565	-1949.57962	159.20715	1276.2056	-1915.4686	350.03826	1434.21417	-2068.74939	394.84768	1205.39848	-2049.06616	410.13374	1115.4184	-2075.79254	424.0406	1006.56639	-2019.88495	361.12083	907.1743	-1921.74576	399.70387	878.06252	-1983.30902	410.21744	851.2262	-1916.54205	-34.55258	1426.65527	-2061.40274	-92.45289	1246.45706	-2087.52701	-108.79453	1127.59789	-2083.78494	-122.15975	995.1738	-2038.25333	-61.75766	904.81216	-1929.36386	-127.33469	882.9232	-1977.11502	-119.7363	855.88287	-1907.13577	263.30982	967.85378	-1938.52875	27.38348	971.84662	-1944.4812	208.17053	1027.20367	-2152.64328	63.90912	1031.17607	-2152.86819	260.05917	748.5746	-2155.13809	297.37862	511.4505	-2069.29642	273.60477	311.68291	-2069.57993	280.72315	128.2836	-2160.62042	227.59794	119.28442	-2210.53986	263.76127	75.24319	-1987.38739	3.47525	730.61119	-2155.67047	-1.33963	487.92171	-2082.0195	56.62673	303.02546	-2072.73087	27.2522	106.82599	-2159.71817	89.42762	112.96402	-2214.37531	43.04278	77.4912	-1991.71707
90	2.987	242.99469	1699.99725	-1999.66034	57.55827	1702.00394	-2013.32886	258.88821	1664.34402	-2125.41977	56.31073	1677.75116	-2126.73004	215.27517	1436.21262	-1991.57181	92.02925	1432.80289	-2000.43869	231.45193	1481.80054	-2143.80692	76.7648	1481.84601	-2141.90842	155.89614	1314.37073	-2205.18295	160.32497	1373.62946	-1949.33533	159.19001	1276.0437	-1915.23041	350.14355	1434.02313	-2068.31146	394.57092	1205.03822	-2048.88641	409.79862	1115.23888	-2075.7045	423.78632	1006.3591	-2019.87732	360.94345	906.82327	-1921.81641	399.51416	877.83882	-1983.42529	410.05451	850.91156	-1916.61911	-34.65997	1426.50574	-2061.12473	-92.50553	1246.28448	-2087.27783	-108.84735	1127.4884	-2083.59604	-122.04329	994.94423	-2037.86957	-61.63494	904.73839	-1928.95935	-127.20964	882.68051	-1976.66916	-119.6201	855.78384	-1906.73782	263.20391	968.08121	-1938.53897	27.42574	972.02774	-1944.68994	208.31667	1027.09793	-2152.62375	64.03022	1031.01959	-2152.91275	260.09388	748.59436	-2154.82941	297.62108	512.0327	-2068.85696	273.78717	311.58428	-2069.11301	280.94587	128.22623	-2160.65292	227.88822	119.35046	-2210.49805	263.76211	75.2398	-1987.41821	3.4319	730.60112	-2155.50369	-1.40953	488.08407	-2080.66589	56.5935	302.73674	-2071.98975	27.10161	106.59453	-2159.54575	89.27852	112.96797	-2214.3248	43.00945	77.54498	-1991.86646
91	3.02	242.93587	1699.92096	-1999.34509	57.56963	1702.03384	-2012.73056	258.74493	1664.32327	-2125.45258	56.15463	1677.71149	-2126.24466	214.96109	1436.19888	-1991.35056	91.80034	1432.63947	-2000.07095	231.17849	1481.83395	-2143.29102	76.46403	1481.88629	-2141.38458	155.69517	1314.4812	-2204.89532	160.09239	1373.46909	-1949.01596	158.98796	1275.80002	-1914.99603	349.52477	1433.77243	-2067.39777	394.22192	1204.92882	-2048.57986	409.50016	1115.19119	-2075.57648	423.45268	1006.37772	-2019.94659	360.63042	906.60233	-1921.97144	399.22859	877.71133	-1983.55209	409.80221	850.73471	-1916.70731	-34.86259	1426.38214	-2060.6311	-92.53452	1246.10001	-2086.73218	-108.7903	1127.25967	-2083.0986	-121.96847	994.81445	-2037.50046	-61.36819	904.57413	-1928.57941	-127.03829	882.57355	-1976.39145	-119.3916	855.6102	-1906.30737	263.07312	968.39806	-1938.62122	27.32027	972.04941	-1945.06424	208.25335	1027.05887	-2152.6973	63.97019	1030.70839	-2153.12912	260.35269	748.63976	-2154.40155	297.59159	512.4897	-2068.13354	274.11322	311.58152	-2068.49335	281.26171	128.39971	-2160.37445	228.22495	119.50933	-2210.43411	263.78565	75.19	-1987.39594	3.2279	729.85741	-2154.54758	-1.08787	487.75074	-2076.95847	56.85672	302.07733	-2069.83978	26.88009	106.716	-2159.42535	89.14446	113.15195	-2214.04694	43.15474	77.57651	-1991.86615
